<?xml version="1.0" encoding="utf-8"?>
<!-- Generator: Adobe Illustrator 21.0.2, SVG Export Plug-In . SVG Version: 6.00 Build 0)  -->
<svg version="1.1" id="Layer_1" xmlns="http://www.w3.org/2000/svg" xmlns:xlink="http://www.w3.org/1999/xlink" x="0px" y="0px"
	 viewBox="0 0 285.8 133.5" style="enable-background:new 0 0 285.8 133.5;" xml:space="preserve">
<style type="text/css">
	.st0{fill:#A7A9AC;}
	.st1{fill-rule:evenodd;clip-rule:evenodd;fill:#231F20;}
	.st2{fill:#231F20;}
</style>
<path class="st0" d="M51.4,71.6c0.2,5.5-2.6,9.8-2.5,15.3L48.8,87l-0.3-0.3c-0.2-5.4-2.6-10.1-2.3-15.4C48,71.2,49.7,71.4,51.4,71.6
	"/>
<path class="st0" d="M45,76.5c1,3.4,0.5,7.5,1.6,10.9c2.6,4.8,0,10.5-0.2,15.6l-1.7,9.3c-6.9-0.7-14.1-6.1-16.4-12.9
	c-3-8.3-0.7-17.9,6.3-23.6c2.7-2.1,5.7-3.4,8.9-4.1C44.1,73.1,44.6,74.8,45,76.5"/>
<path class="st0" d="M62.5,77.4c-1.6,2.9-3.8,5.5-5.4,8.3c-1.8,3.3-4.8,6.2-6.3,9.6c-0.6,0.7-1.2,1.6-2.1,1.8
	c-0.3-1.8,0.8-3.5,0.8-5.3c0.6-4,0.9-8.2,2.6-11.7l1.8-7.9C56.9,73.4,60,74.8,62.5,77.4"/>
<path class="st0" d="M66.7,99.9c-3.1,7.5-10.9,12.4-18.9,12.6c-0.6-1.4-0.4-3.2-0.6-4.7c-0.4-6,5-9.9,7.3-15c1.6-3.4,4.7-6.5,7.5-9
	c0.9-1.3,1.7-2.7,2.2-4.1C68.6,85,69.5,93.4,66.7,99.9"/>
<path class="st1" d="M84.3,40.3c0.3,0.2,0.8,0.4,1.4,0.6c0.6,0.2,1.1,0.3,1.8,0.3c1.7,0,3.2-0.5,4.6-1.6c1.3-1.1,2-2.8,2-5.3
	c0-2.6-0.6-4.5-1.8-5.8c-1.2-1.2-3-1.8-5.4-1.8h-2.5V40.3 M80.2,26.7h-4V26h11.5c3.3,0,5.8,0.6,7.8,1.9c1.9,1.2,2.9,3.2,2.9,6
	c0,2.6-1,4.6-3,5.9c-2,1.3-4.4,2-7.2,2c-1.6,0-2.9-0.2-3.8-0.7v12.7h4.1v0.6H76.2v-0.6h4V26.7z"/>
<path class="st1" d="M114.7,54.4c2.2,0,3.9-0.8,5.1-2.3c1.2-1.5,2-3.3,2.4-5.4c0.4-2.1,0.6-4.3,0.6-6.5c0-2.3-0.2-4.5-0.6-6.6
	c-0.4-2-1.2-3.8-2.4-5.3c-1.2-1.5-2.9-2.3-5.2-2.3c-2.2,0-3.9,0.8-5.1,2.3c-1.2,1.5-2,3.3-2.4,5.4c-0.4,2.1-0.6,4.2-0.6,6.5
	c0,2.3,0.2,4.5,0.6,6.6c0.4,2,1.2,3.8,2.4,5.3C110.7,53.7,112.5,54.4,114.7,54.4 M114.7,25.4c3.4,0,6.4,1.4,8.9,4.4
	c2.5,2.9,3.8,6.4,3.8,10.5c0,4.1-1.3,7.6-3.8,10.5c-2.5,2.9-5.5,4.3-9,4.3c-3.4,0-6.4-1.5-8.9-4.4c-2.5-2.9-3.8-6.4-3.8-10.5
	c0-4.1,1.3-7.6,3.8-10.5C108.2,26.9,111.2,25.4,114.7,25.4z"/>
<path class="st1" d="M138.5,39.5h2c2.5,0,4.4-0.5,5.6-1.5c1.3-1,1.9-2.6,1.9-4.9c0-1.9-0.5-3.5-1.5-4.7c-1-1.2-2.8-1.8-5.4-1.8h-2.7
	V39.5 M134.4,26.7h-4V26h12.4c2.9,0,5.2,0.5,7,1.5c1.8,1,2.7,2.9,2.7,5.7c0,2.2-0.9,3.8-2.7,4.7c-1.8,1-3.8,1.6-6,1.9
	c2.6,0.3,4.4,0.8,5.5,1.7c1.1,0.9,1.9,2.6,2.2,5.1l0.6,4.9c0.1,1,0.4,1.7,0.8,2c0.4,0.3,0.8,0.5,1.3,0.5c0.4,0,1-0.1,1.7-0.4
	l0.2,0.5c-0.4,0.2-0.9,0.3-1.4,0.4c-0.5,0.1-1.1,0.1-1.9,0.1c-2.2,0-3.7-0.5-4.3-1.6c-0.6-1-1.1-2.9-1.5-5.7l-0.3-2.4
	c-0.2-1.6-0.6-2.8-1.4-3.6c-0.7-0.8-2.1-1.2-4.2-1.2h-2.6v13.6h4.1v0.6h-12.3v-0.6h4V26.7z"/>
<path class="st2" d="M167.7,26.7h-0.8c-3.7,0-6,0.5-7.1,1.4c-1.1,0.9-1.7,3-1.7,6.3h-0.6V26h24.7v8.4h-0.6c0-3.3-0.6-5.4-1.7-6.3
	c-1.1-0.9-3.5-1.4-7.1-1.4h-0.9v27.2h4.2v0.6h-12.4v-0.6h4.2V26.7"/>
<path class="st1" d="M197.8,54.4c2.2,0,3.9-0.8,5.1-2.3c1.2-1.5,2-3.3,2.4-5.4c0.4-2.1,0.6-4.3,0.6-6.5c0-2.3-0.2-4.5-0.6-6.6
	c-0.4-2-1.2-3.8-2.4-5.3c-1.2-1.5-2.9-2.3-5.2-2.3c-2.2,0-3.9,0.8-5.1,2.3c-1.2,1.5-2,3.3-2.4,5.4c-0.4,2.1-0.6,4.2-0.6,6.5
	c0,2.3,0.2,4.5,0.6,6.6c0.4,2,1.2,3.8,2.4,5.3C193.8,53.7,195.6,54.4,197.8,54.4 M197.8,25.4c3.4,0,6.4,1.4,8.9,4.4
	c2.5,2.9,3.8,6.4,3.8,10.5c0,4.1-1.3,7.6-3.8,10.5c-2.5,2.9-5.5,4.3-9,4.3c-3.4,0-6.4-1.5-8.9-4.4c-2.5-2.9-3.8-6.4-3.8-10.5
	c0-4.1,1.3-7.6,3.8-10.5C191.3,26.9,194.3,25.4,197.8,25.4z"/>
<path class="st2" d="M24.2,19.6v41.3h48V19.6H24.2z M58.1,26.7h-1c-0.7,0-1.3,0.3-1.6,0.8c-0.3,0.6-0.5,1.4-0.5,2.6v15.1
	c0,3.1-0.9,5.5-2.6,7.2c-1.8,1.7-4.4,2.6-8,2.6c-3.3,0-6-0.9-7.9-2.7c-2-1.8-3-4.2-3-7.4V26.7h-3.1V26H43v0.7h-3.3v17.7
	c0,3,0.5,5.2,1.5,6.8c1,1.6,2.9,2.6,5.6,2.3c2.2-0.2,3.4-0.7,4.8-2.1c1.4-1.4,2.1-3.4,2.1-6V30.1c0-1.2-0.2-2.1-0.6-2.6
	c-0.4-0.5-0.7-0.8-1.7-0.8h-1.2V26h8V26.7z M64.5,53.9c-0.6,0.6-1.2,0.8-2,0.8c-0.8,0-1.5-0.3-2-0.8c-0.6-0.6-0.8-1.2-0.8-2
	c0-0.8,0.3-1.5,0.8-2c0.6-0.6,1.2-0.8,2-0.8c0.8,0,1.5,0.3,2,0.8c0.6,0.6,0.8,1.2,0.8,2C65.3,52.7,65.1,53.4,64.5,53.9z"/>
<path class="st2" d="M102.9,72.1l-0.7,1.4c-0.6-0.4-1.3-0.6-2.1-0.6c-0.9,0-1.6,0.3-2.2,0.9c-0.6,0.6-0.9,1.3-0.9,2.2
	c0,1,0.3,1.8,0.9,2.4c0.6,0.6,1.4,0.9,2.4,0.9c0.6,0,1.3-0.1,2-0.4l0.3,1.5c-0.5,0.2-0.9,0.4-1.2,0.4c-0.2,0-0.5,0.1-0.7,0.1
	c-0.2,0-0.5,0-0.8,0c-1.4,0-2.5-0.4-3.3-1.1c-1-0.9-1.6-2.2-1.6-3.7c0-1.4,0.5-2.5,1.4-3.5c0.9-0.9,2-1.3,3.5-1.3
	C101.1,71.2,102.1,71.5,102.9,72.1z M112,77c0,0.8-0.1,1.5-0.3,1.9c-0.2,0.5-0.5,0.9-1,1.2c-0.6,0.4-1.5,0.7-2.6,0.7
	c-1.1,0-2-0.2-2.6-0.7c-0.5-0.3-0.8-0.7-1-1.2c-0.2-0.4-0.3-1.1-0.3-2v-5.6h1.8v5.7c0,1.4,0.7,2.1,2.2,2.1c1.4,0,2.1-0.7,2.1-2.1
	v-5.7h1.8V77z M218.3,72l-0.7,1.6c-1-0.4-1.8-0.7-2.4-0.7c-0.4,0-0.8,0.1-1,0.2c-0.2,0.2-0.4,0.4-0.4,0.6c0,0.3,0.3,0.7,0.9,1
	c1.4,0.8,2.4,1.4,2.8,1.8c0.4,0.4,0.6,1,0.6,1.7c0,0.8-0.3,1.5-0.8,1.9c-0.6,0.5-1.4,0.7-2.4,0.7c-0.1,0-0.3,0-0.4,0
	c-0.1,0-0.3,0-0.4,0c-0.5-0.1-1.2-0.3-1.9-0.6c-0.1,0-0.1-0.1-0.2-0.1c-0.1,0-0.2-0.1-0.4-0.2l0.7-1.6c0.3,0.2,0.6,0.3,0.8,0.4
	c0.2,0.1,0.4,0.2,0.5,0.2c0.5,0.2,0.9,0.3,1.3,0.3s0.8-0.1,1-0.3c0.2-0.2,0.3-0.4,0.3-0.7c0-0.3-0.3-0.7-0.8-1l-1.4-0.8
	c-0.8-0.5-1.4-0.9-1.7-1.2c-0.3-0.4-0.5-0.8-0.5-1.3c0-0.5,0.1-0.9,0.4-1.3c0.1-0.1,0.2-0.3,0.3-0.4c0.1-0.1,0.2-0.2,0.4-0.3
	c0.6-0.4,1.4-0.6,2.3-0.6c0.6,0,1.2,0.1,1.7,0.2c0.2,0.1,0.4,0.1,0.6,0.2C217.8,71.7,218.1,71.8,218.3,72z M260.9,72l-0.7,1.6
	c-1-0.4-1.8-0.7-2.4-0.7c-0.4,0-0.8,0.1-1,0.2c-0.2,0.2-0.4,0.4-0.4,0.6c0,0.3,0.3,0.7,0.9,1c1.4,0.8,2.4,1.4,2.8,1.8
	c0.4,0.4,0.6,1,0.6,1.7c0,0.8-0.3,1.5-0.8,1.9c-0.6,0.5-1.4,0.7-2.4,0.7c-0.1,0-0.3,0-0.4,0c-0.1,0-0.3,0-0.4,0
	c-0.5-0.1-1.2-0.3-1.9-0.6c-0.1,0-0.1-0.1-0.2-0.1c-0.1,0-0.2-0.1-0.4-0.2l0.7-1.6c0.3,0.2,0.6,0.3,0.8,0.4c0.2,0.1,0.4,0.2,0.5,0.2
	c0.5,0.2,0.9,0.3,1.3,0.3c0.4,0,0.8-0.1,1-0.3c0.2-0.2,0.3-0.4,0.3-0.7c0-0.3-0.3-0.7-0.8-1l-1.4-0.8c-0.8-0.5-1.4-0.9-1.7-1.2
	c-0.3-0.4-0.5-0.8-0.5-1.3c0-0.5,0.1-0.9,0.4-1.3c0.1-0.1,0.2-0.3,0.3-0.4c0.1-0.1,0.2-0.2,0.4-0.3c0.6-0.4,1.4-0.6,2.3-0.6
	c0.6,0,1.2,0.1,1.7,0.2c0.2,0.1,0.4,0.1,0.6,0.2C260.4,71.7,260.6,71.8,260.9,72z M86.1,72.8h-4v2.4h3.2v1.5h-3.2v3.9h-1.8v-9.2h5.7
	V72.8z M94.7,80.6h-1.8l-0.7-2.3H89l-0.8,2.3h-1.8l3.3-9.2h1.6L94.7,80.6z M119.8,80.6h-5.5v-9.2h1.8v7.7h3.8V80.6z M129.5,75.9
	c0,1.3-0.4,2.4-1.3,3.3c-0.9,0.9-2.1,1.4-3.7,1.4h-3.4v-9.2h3.4c1.7,0,2.9,0.4,3.7,1.3C129.1,73.6,129.5,74.7,129.5,75.9z
	 M138.2,80.6h-1.8l-0.7-2.3h-3.1l-0.8,2.3h-1.8l3.3-9.2h1.6L138.2,80.6z M147.8,75.9c0,1.3-0.4,2.4-1.3,3.3
	c-0.9,0.9-2.1,1.4-3.7,1.4h-3.4v-9.2h3.4c1.7,0,2.9,0.4,3.7,1.3C147.4,73.6,147.8,74.7,147.8,75.9z M155.2,80.6h-5.8v-9.2h5.6v1.5
	h-3.9v2.3h3.2v1.5h-3.2v2.5h4V80.6z M168.8,75.9c0,1.3-0.4,2.4-1.3,3.3c-0.9,0.9-2.1,1.4-3.7,1.4h-3.4v-9.2h3.4
	c1.7,0,2.9,0.4,3.7,1.3C168.4,73.6,168.8,74.7,168.8,75.9z M176.2,80.6h-5.8v-9.2h5.6v1.5h-3.9v2.3h3.2v1.5h-3.2v2.5h4V80.6z
	 M188,78.1c0,1.6-1,2.5-2.9,2.5h-3.8v-9.2h3.3c1.1,0,1.8,0.2,2.3,0.6c0.5,0.4,0.7,1,0.7,1.7c0,0.3,0,0.5-0.1,0.8
	c-0.1,0.3-0.2,0.5-0.4,0.7c-0.2,0.2-0.4,0.4-0.6,0.5c-0.3,0.1-0.5,0.2-0.9,0.2c0.7,0,1.3,0.2,1.7,0.7C187.8,76.8,188,77.4,188,78.1z
	 M195.5,80.6h-5.8v-9.2h5.6v1.5h-3.9v2.3h3.2v1.5h-3.2v2.5h4V80.6z M202.8,80.6h-5.5v-9.2h1.8v7.7h3.8V80.6z M211.2,80.6h-1.8
	l-0.7-2.3h-3.1l-0.8,2.3H203l3.3-9.2h1.6L211.2,80.6z M230.5,80.6h-1.8l-0.7-2.3h-3.1l-0.8,2.3h-1.8l3.3-9.2h1.6L230.5,80.6z
	 M238.5,80.6h-1.9l-2.1-3.7h-0.9v3.7h-1.8v-9.2h3.1c0.3,0,0.6,0,0.9,0c0.3,0,0.5,0.1,0.7,0.1c0.2,0.1,0.4,0.1,0.5,0.2
	c0.2,0.1,0.3,0.2,0.4,0.3c0.5,0.5,0.8,1.1,0.8,2c0,0.7-0.2,1.3-0.5,1.7c-0.3,0.4-0.8,0.7-1.4,0.9L238.5,80.6z M246.2,72.8h-2.8v7.7
	h-1.8v-7.7h-2.8v-1.5h7.3V72.8z M253.4,80.6h-5.8v-9.2h5.6v1.5h-3.9v2.3h3.2v1.5h-3.2v2.5h4V80.6z M186.1,77.9
	c0-0.9-0.6-1.3-1.7-1.3h-1.1v2.5h1.1c0.5,0,0.8-0.1,1.1-0.2C185.8,78.8,186.1,78.4,186.1,77.9z M127.6,75.9c0-1.1-0.3-2-1.1-2.5
	c-0.5-0.4-1.2-0.5-2.2-0.5h-1.4V79h1.4c1,0,1.8-0.3,2.4-0.8C127.3,77.7,127.6,76.9,127.6,75.9z M145.9,75.9c0-1.1-0.3-2-1.1-2.5
	c-0.5-0.4-1.2-0.5-2.2-0.5h-1.4V79h1.4c1,0,1.8-0.3,2.4-0.8C145.6,77.7,145.9,76.9,145.9,75.9z M166.9,75.9c0-1.1-0.4-2-1.1-2.5
	c-0.5-0.4-1.2-0.5-2.2-0.5h-1.4V79h1.4c1,0,1.8-0.3,2.4-0.8C166.6,77.7,166.9,76.9,166.9,75.9z M91.6,76.8l-1.1-3.3l-1.1,3.3H91.6z
	 M135.1,76.8l-1.1-3.3l-1.1,3.3H135.1z M208.2,76.8l-1.1-3.3l-1.1,3.3H208.2z M227.5,76.8l-1.1-3.3l-1.1,3.3H227.5z M236.4,74.1
	c0-0.4-0.1-0.8-0.4-1c-0.2-0.2-0.7-0.3-1.2-0.3h-1.1v2.5h1.1C235.8,75.4,236.4,74.9,236.4,74.1z M185.8,73.9c0-0.8-0.5-1.2-1.4-1.2
	h-1.1v2.4h1C185.3,75.1,185.8,74.7,185.8,73.9z"/>
<path class="st2" d="M87.6,93.5c0,1.1-0.4,2-1.1,2.6c-0.7,0.6-1.5,0.9-2.5,0.9c-1,0-1.8-0.3-2.6-0.9c-0.7-0.6-1.1-1.4-1.1-2.6v-6.1
	h1.1v5.7c0,0.6,0,1,0.1,1.2c0.1,0.3,0.2,0.5,0.4,0.7c0.5,0.5,1.1,0.8,1.9,0.8c0.8,0,1.5-0.3,1.9-0.8c0.2-0.2,0.4-0.5,0.4-0.7
	c0.1-0.2,0.1-0.6,0.1-1.2v-5.7h1.1V93.5z M111.7,87.4l-3.6,9.5h-0.7l-3.6-9.5h1.2l2.7,7.2c0,0.1,0.1,0.3,0.1,0.4
	c0-0.1,0-0.3,0.1-0.4l2.6-7.2H111.7z M134.3,88.1l-0.5,1c-0.2-0.1-0.4-0.2-0.5-0.3c-0.2-0.1-0.3-0.1-0.4-0.2
	c-0.4-0.1-0.8-0.2-1.3-0.2c-0.5,0-1,0.1-1.3,0.3c-0.3,0.2-0.5,0.6-0.5,1c0,0.4,0.1,0.6,0.4,0.9c0.3,0.3,0.9,0.6,1.8,1.1
	c0.7,0.3,1.1,0.7,1.5,0.9c0.5,0.4,0.7,1,0.7,1.7c0,0.8-0.3,1.4-0.8,1.9c-0.5,0.5-1.3,0.7-2.2,0.7c-0.6,0-1.2-0.1-1.7-0.3
	c-0.3-0.1-0.7-0.3-1.2-0.7l0.6-0.9c0.2,0.2,0.4,0.3,0.6,0.4c0.2,0.1,0.3,0.2,0.5,0.2c0.4,0.2,0.9,0.2,1.3,0.2c0.6,0,1-0.1,1.3-0.4
	c0.3-0.2,0.4-0.6,0.4-1c0-0.3,0-0.5-0.1-0.7c-0.2-0.3-0.4-0.6-0.8-0.8c-0.1-0.1-0.3-0.2-0.5-0.3c-0.3-0.1-0.6-0.3-1-0.5
	c-1.3-0.7-2-1.5-2-2.4c0-0.7,0.3-1.3,0.8-1.8c0.6-0.4,1.3-0.7,2.2-0.7c0.6,0,1.1,0.1,1.6,0.2C133.5,87.6,133.9,87.8,134.3,88.1z
	 M198.5,92.1c0,1.4-0.4,2.5-1.3,3.4c-0.9,0.9-2,1.4-3.3,1.4c-1.3,0-2.5-0.4-3.3-1.4c-0.9-0.9-1.3-2.1-1.3-3.4c0-1.4,0.4-2.5,1.3-3.4
	c0.9-0.9,2-1.4,3.3-1.4c1.3,0,2.5,0.4,3.3,1.4C198,89.5,198.5,90.7,198.5,92.1z M220.4,92.1c0,1.4-0.4,2.5-1.3,3.4
	c-0.9,0.9-2,1.4-3.3,1.4c-1.3,0-2.4-0.4-3.3-1.4c-0.9-0.9-1.3-2.1-1.3-3.4c0-1.4,0.4-2.5,1.3-3.4c0.9-0.9,2-1.4,3.3-1.4
	c1.3,0,2.5,0.4,3.3,1.4C220,89.5,220.4,90.7,220.4,92.1z M246.8,92.1c0,1.4-0.4,2.5-1.3,3.4c-0.9,0.9-2,1.4-3.3,1.4
	c-1.3,0-2.5-0.4-3.3-1.4c-0.9-0.9-1.3-2.1-1.3-3.4c0-1.4,0.4-2.5,1.3-3.4c0.9-0.9,2-1.4,3.3-1.4c1.3,0,2.5,0.4,3.3,1.4
	C246.4,89.5,246.8,90.7,246.8,92.1z M98,96.8h-1.3L92,89.6c0,0,0-0.1-0.1-0.1c0,0-0.1-0.1-0.1-0.2c-0.1-0.1-0.2-0.3-0.3-0.6v8h-1.1
	v-9.2h1.5l4.6,7c0,0,0.1,0.1,0.1,0.1c0,0,0,0.1,0.1,0.1c0,0,0,0.1,0.1,0.2c0,0.1,0.1,0.2,0.1,0.3c0,0,0,0,0,0.1c0,0,0,0,0,0.1v-7.8
	H98V96.8z M102.2,96.7H101v-9.2h1.1V96.7z M118.7,96.7h-5.3v-9.2h5.2v1h-4v3.1h3.3v1h-3.3v3.3h4.2V96.7z M127.2,96.7h-1.3l-2.5-4
	h-1.2v4h-1.1v-9.2h2.8c0.3,0,0.5,0,0.7,0c0.2,0,0.4,0.1,0.6,0.1c0.2,0.1,0.3,0.1,0.5,0.2c0.1,0.1,0.3,0.2,0.4,0.3
	c0.5,0.5,0.7,1.1,0.7,1.8c0,0.8-0.3,1.4-0.8,1.9c-0.3,0.4-0.8,0.6-1.4,0.7L127.2,96.7z M137.7,96.7h-1.1v-9.2h1.1V96.7z M148.5,92
	c0,1.2-0.4,2.4-1.2,3.3c-0.4,0.5-0.9,0.8-1.4,1c-0.5,0.2-1.2,0.3-2,0.3h-3.1v-9.2h3.1c1.3,0,2.5,0.4,3.3,1.3
	C148.1,89.6,148.5,90.7,148.5,92z M157.4,96.7h-1.2l-1-2.7h-3.7l-1,2.7h-1.2l3.4-9.5h1.2L157.4,96.7z M166.8,92
	c0,1.2-0.4,2.4-1.2,3.3c-0.4,0.5-0.9,0.8-1.4,1c-0.5,0.2-1.2,0.3-2,0.3h-3.1v-9.2h3.1c1.3,0,2.5,0.4,3.3,1.3
	C166.4,89.6,166.8,90.7,166.8,92z M174.3,96.7H169v-9.2h5.2v1h-4v3.1h3.3v1h-3.3v3.3h4.2V96.7z M187.8,92c0,1.2-0.4,2.4-1.2,3.3
	c-0.4,0.5-0.9,0.8-1.4,1c-0.5,0.2-1.2,0.3-2,0.3h-3.1v-9.2h3.1c1.3,0,2.5,0.4,3.3,1.3C187.4,89.6,187.8,90.7,187.8,92z M210.1,90.2
	c0,0.5-0.1,0.9-0.2,1.3c-0.2,0.4-0.4,0.7-0.7,1c-0.3,0.3-0.6,0.5-1,0.6c-0.4,0.2-0.9,0.2-1.4,0.2c-0.1,0-0.3,0-0.5,0
	c-0.2,0-0.5,0-0.9-0.1v3.5h-1.1v-9.2h2.9c1,0,1.8,0.2,2.3,0.7C209.8,88.7,210.1,89.3,210.1,90.2z M228.9,96.7h-1.3l-2.5-4h-1.2v4
	h-1.1v-9.2h2.8c0.3,0,0.5,0,0.7,0c0.2,0,0.4,0.1,0.6,0.1c0.2,0.1,0.3,0.1,0.5,0.2c0.1,0.1,0.3,0.2,0.4,0.3c0.5,0.5,0.7,1.1,0.7,1.8
	c0,0.8-0.3,1.4-0.8,1.9c-0.3,0.4-0.8,0.6-1.4,0.7L228.9,96.7z M236.7,88.4h-3.1v8.3h-1.1v-8.3h-3.1v-1h7.3V88.4z M197.2,92.1
	c0-1-0.3-1.9-1-2.7c-0.7-0.7-1.5-1.1-2.4-1.1c-0.9,0-1.7,0.4-2.4,1.1c-0.7,0.7-1,1.6-1,2.7c0,1,0.3,1.9,1,2.7
	c0.7,0.7,1.5,1.1,2.4,1.1c0.9,0,1.7-0.4,2.4-1.1C196.9,94,197.2,93.1,197.2,92.1z M219.2,92.1c0-1-0.3-1.9-1-2.7
	c-0.7-0.7-1.5-1.1-2.4-1.1c-0.9,0-1.7,0.4-2.4,1.1c-0.7,0.7-1,1.6-1,2.7c0,1,0.3,1.9,1,2.7c0.7,0.7,1.5,1.1,2.4,1.1
	c0.9,0,1.7-0.4,2.4-1.1C218.8,94,219.2,93.1,219.2,92.1z M245.6,92.1c0-1-0.3-1.9-1-2.7c-0.7-0.7-1.5-1.1-2.4-1.1
	c-0.9,0-1.7,0.4-2.4,1.1c-0.7,0.7-1,1.6-1,2.7c0,1,0.3,1.9,1,2.7c0.7,0.7,1.5,1.1,2.4,1.1s1.7-0.4,2.4-1.1
	C245.2,94,245.6,93.1,245.6,92.1z M147.3,92c0-1-0.3-1.9-1-2.6c-0.7-0.7-1.6-1-2.6-1h-1.8v7.3h1.8c1.1,0,2-0.3,2.5-0.8
	c0.2-0.2,0.3-0.4,0.5-0.6c0.1-0.2,0.3-0.5,0.4-0.7c0.1-0.3,0.2-0.5,0.2-0.8C147.3,92.5,147.3,92.3,147.3,92z M165.6,92
	c0-1-0.3-1.9-1-2.6c-0.7-0.7-1.6-1-2.6-1h-1.8v7.3h1.8c1.1,0,2-0.3,2.5-0.8c0.2-0.2,0.3-0.4,0.5-0.6c0.1-0.2,0.3-0.5,0.4-0.7
	c0.1-0.3,0.2-0.5,0.2-0.8C165.6,92.5,165.6,92.3,165.6,92z M186.6,92c0-1-0.3-1.9-1-2.6c-0.7-0.7-1.6-1-2.6-1h-1.8v7.3h1.8
	c1.1,0,2-0.3,2.5-0.8c0.2-0.2,0.3-0.4,0.5-0.6c0.1-0.2,0.3-0.5,0.4-0.7c0.1-0.3,0.2-0.5,0.2-0.8C186.6,92.5,186.6,92.3,186.6,92z
	 M154.9,92.9l-1.5-4.2l-1.5,4.2H154.9z M208.9,90.2c0-0.6-0.2-1.1-0.5-1.4c-0.3-0.3-0.7-0.4-1.4-0.4h-1.6v3.8
	c0.5,0.1,0.9,0.1,1.2,0.1c0.5,0,0.9-0.1,1.2-0.2c0.3-0.1,0.6-0.4,0.8-0.7C208.8,91.1,208.9,90.7,208.9,90.2z M125.4,89.9
	c0-0.6-0.2-1-0.5-1.3c-0.2-0.2-0.7-0.3-1.3-0.3h-1.5v3.3h1.5C124.8,91.7,125.4,91.1,125.4,89.9z M227.2,89.9c0-0.6-0.2-1-0.5-1.3
	c-0.2-0.2-0.7-0.3-1.3-0.3h-1.5v3.3h1.5C226.5,91.7,227.2,91.1,227.2,89.9z"/>
</svg>
