<svg enable-background="new 0 0 209.6 318.9" viewBox="0 0 209.6 318.9" xmlns="http://www.w3.org/2000/svg"><g fill="#1d1d1b"><path clip-rule="evenodd" d="m167 190.4h3.6v5.5h4.7v-5.5h3.6v14.4h-3.6v-5.8h-4.7v5.8h-3.6zm-14 9.5v-4.4c0-3.5 2.9-5.3 6.1-5.3 2.8 0 5.9 1.4 5.9 4.8v.7h-3.4v-.3c0-1.5-1.3-2.1-2.4-2.1-1.3 0-2.5.7-2.5 2.3v4.4c0 1.5 1.1 2.3 2.6 2.3 1.1 0 2.3-.6 2.3-2.1v-.3h3.4v.7c0 3.3-3 4.7-5.8 4.7-3.2-.2-6.2-1.8-6.2-5.4zm-7.5-2.8c1.3 0 2.1-.8 2.1-1.9 0-1.2-.8-1.9-2.1-1.9h-2.2v3.8zm-5.8-6.7h6.3c3.3 0 5.2 1.9 5.2 4.6 0 1.8-.9 3.5-2.7 4.3l3.3 5.6h-3.9l-2.9-5.1h-1.6v5.1h-3.6v-14.5zm5.8 6.7c1.3 0 2.1-.8 2.1-1.9 0-1.2-.8-1.9-2.1-1.9h-2.2v3.8zm-5.8-6.7h6.3c3.3 0 5.2 1.9 5.2 4.6 0 1.8-.9 3.5-2.7 4.3l3.3 5.6h-3.9l-2.9-5.1h-1.6v5.1h-3.6v-14.5zm5.8 6.7c1.3 0 2.1-.8 2.1-1.9 0-1.2-.8-1.9-2.1-1.9h-2.2v3.8zm-5.8-6.7h6.3c3.3 0 5.2 1.9 5.2 4.6 0 1.8-.9 3.5-2.7 4.3l3.3 5.6h-3.9l-2.9-5.1h-1.6v5.1h-3.6v-14.5zm-6.9 9-1.7-5.2-1.7 5.2zm-3.4-9h3.9l5.1 14.5h-3.7l-.9-2.7h-5.2l-.9 2.7h-3.4zm3.4 9-1.7-5.2-1.7 5.2zm-3.4-9h3.9l5.1 14.5h-3.7l-.9-2.7h-5.2l-.9 2.7h-3.4zm3.4 9-1.7-5.2-1.7 5.2zm-3.4-9h3.9l5.1 14.5h-3.7l-.9-2.7h-5.2l-.9 2.7h-3.4zm-17 0h10.6v2.9h-7v2.8h5.9v2.9h-5.9v2.9h7v3h-10.7v-14.5zm-13.8 12.1 2.3-2c.7 1.1 2.1 1.8 3.7 1.8 1.1 0 2.3-.3 2.3-1.4 0-.9-.7-1.2-1.6-1.5l-2.5-.6c-2-.5-3.4-1.7-3.4-4 0-2.7 2.2-4.6 5.4-4.6 2.6 0 4.3.7 5.4 2.2l-2.3 1.9c-.7-.9-1.9-1.4-3-1.4s-2 .4-2 1.4c0 .8.9 1.1 2 1.4l2.3.6c2.1.5 3.5 1.8 3.5 4 0 3.1-2.8 4.7-5.8 4.7-2.7.1-4.9-.6-6.3-2.5zm-11.7-12.1h10.6v2.9h-7v2.8h5.9v2.9h-5.9v2.9h7v3h-10.6zm-7.9 6.7c1.3 0 2.1-.8 2.1-1.9 0-1.2-.8-1.9-2.1-1.9h-2.2v3.8zm-5.8-6.7h6.3c3.3 0 5.2 1.9 5.2 4.6 0 1.8-.9 3.5-2.7 4.3l3.3 5.6h-3.9l-2.9-5.1h-1.6v5.1h-3.6v-14.5zm5.8 6.7c1.3 0 2.1-.8 2.1-1.9 0-1.2-.8-1.9-2.1-1.9h-2.2v3.8zm-5.8-6.7h6.3c3.3 0 5.2 1.9 5.2 4.6 0 1.8-.9 3.5-2.7 4.3l3.3 5.6h-3.9l-2.9-5.1h-1.6v5.1h-3.6v-14.5zm5.8 6.7c1.3 0 2.1-.8 2.1-1.9 0-1.2-.8-1.9-2.1-1.9h-2.2v3.8zm-5.8-6.7h6.3c3.3 0 5.2 1.9 5.2 4.6 0 1.8-.9 3.5-2.7 4.3l3.3 5.6h-3.9l-2.9-5.1h-1.6v5.1h-3.6v-14.5z" fill-rule="evenodd"/><path clip-rule="evenodd" d="m173.1 248-1.7-5.2-1.7 5.2zm-3.5-9h3.9l5.1 14.5h-3.7l-.9-2.7h-5.2l-.9 2.7h-3.4zm-10.2 0h3.6v14.4h-3.6zm-8.3 11.5c1.3 0 2.5-.8 2.5-2.3v-4c0-1.4-1.1-2.2-2.6-2.2h-2.1v8.5zm-5.8-11.5h6c3.2 0 5.9 1.7 5.9 5.1v4.1c0 3.6-2.8 5.3-5.9 5.3h-6.1v-14.5zm-13 0h10.6v2.9h-7v2.8h5.9v2.9h-5.9v2.9h7v3h-10.7v-14.5zm-17.3 0h4.5l2.9 7.5 2.9-7.5h4.4v14.4h-3.3v-9.2l-2.8 7.2h-2.5l-2.8-7.2v9.2h-3.3zm-10.2 14.5h-1.2v-3.5h3.4v3.3l-1.3 3h-1.6zm-16.1-14.5h3.5l5.5 8.2v-8.2h3.3v14.4h-3.4l-5.6-8.5v8.5h-3.3zm-14 9.5v-4.4c0-3.5 2.9-5.3 6.1-5.3 2.8 0 5.9 1.3 5.9 4.7v.5h-3.4v-.3c0-1.5-1.3-2-2.4-2-1.3 0-2.6.7-2.6 2.3v4.5c0 1.5 1.1 2.4 2.6 2.4 1.2 0 2.3-.6 2.3-2.1v-.4h-2.9v-2.7h6.4v3.3c0 3.3-3 4.7-5.8 4.7-3.3 0-6.2-1.6-6.2-5.2zm-5.8-9.5h3.6v14.4h-3.6zm-13.8 12.1 2.3-2c.7 1.1 2.1 1.8 3.7 1.8 1.1 0 2.3-.3 2.3-1.4 0-.9-.7-1.2-1.6-1.5l-2.5-.6c-2-.5-3.4-1.7-3.4-4 0-2.7 2.2-4.6 5.4-4.6 2.6 0 4.3.7 5.4 2.2l-2.3 1.9c-.7-.9-1.9-1.4-3-1.4s-2 .4-2 1.4c0 .8.9 1.1 2 1.4l2.3.6c2.1.5 3.5 1.8 3.5 4 0 3.1-2.8 4.7-5.8 4.7-2.7.1-5-.6-6.3-2.5zm-11.8-12.1h10.6v2.9h-7v2.8h5.9v2.9h-5.9v2.9h7v3h-10.6zm-8.3 11.5c1.3 0 2.5-.8 2.5-2.3v-4c0-1.4-1.1-2.2-2.6-2.2h-2.1v8.5zm-5.8-11.5h6c3.2 0 5.9 1.7 5.9 5.1v4.1c0 3.6-2.8 5.3-5.9 5.3h-6.1v-14.5z" fill-rule="evenodd"/><path clip-rule="evenodd" d="m140.5 214.7h10.5v2.9h-6.8v2.9h5.7v2.9h-5.7v5.6h-3.6v-14.3zm20.4 9.4v-4.3c0-1.5-1.2-2.3-2.6-2.3-1.3 0-2.5.7-2.5 2.4v4.2c0 1.5 1.1 2.4 2.6 2.4 1.3-.1 2.5-.8 2.5-2.4zm-8.6 0v-4.1c0-3.7 3-5.5 6.1-5.5 3.2 0 6.2 1.7 6.2 5.4v4c0 3.8-3.1 5.5-6.1 5.5-3.3 0-6.2-1.5-6.2-5.3zm20.3-2.7c1.3 0 2.1-.7 2.1-1.9s-.8-1.9-2.1-1.9h-2.2v3.8zm-5.9-6.7h6.3c3.3 0 5.2 1.9 5.2 4.6 0 1.8-.9 3.5-2.7 4.3l3.3 5.6h-3.9l-2.9-5.1h-1.6v5.1h-3.6v-14.5zm-137.5 0h3.6v14.4h-3.6zm6.1 0h3.5l5.5 8.2v-8.2h3.3v14.4h-3.4l-5.6-8.5v8.5h-3.3zm14 12.1 2.3-2c.7 1.1 2.1 1.8 3.7 1.8 1.1 0 2.3-.3 2.3-1.4 0-.9-.7-1.2-1.6-1.5l-2.5-.6c-2-.5-3.4-1.7-3.4-4 0-2.7 2.2-4.6 5.4-4.6 2.6 0 4.3.7 5.4 2.2l-2.3 1.9c-.7-.9-1.9-1.4-3-1.4s-2 .4-2 1.4c0 .8.9 1.1 2 1.4l2.3.6c2.1.5 3.5 1.8 3.5 4 0 3.1-2.8 4.7-5.8 4.7-2.7.1-4.9-.6-6.3-2.5zm16.9-9.2h-4.1v-2.9h11.9v2.9h-4.1v11.5h-3.6v-11.5zm9.5-2.9h3.6v14.4h-3.6zm9.6 2.9h-4.1v-2.9h11.8v2.9h-4.1v11.5h-3.6zm9.4 6.5v-9.3h3.6v9.1c0 1.6.9 2.6 2.5 2.6 1.5 0 2.4-.9 2.4-2.6v-9.1h3.5v9.2c0 3.6-2.7 5.5-6.1 5.5-3.6-.1-5.9-1.8-5.9-5.4zm17.8-6.5h-4.1v-2.9h11.8v2.9h-4.1v11.5h-3.6zm9.5-2.9h10.6v2.9h-7v2.8h5.9v2.9h-5.9v2.9h7v3h-10.6z" fill-rule="evenodd"/><path d="m29.2 190.4h3.6v14.4h-3.6z"/><path d="m54.6 199.7h-4.6v-2.4h4.6v-4.6h2.4v4.6h4.6v2.4h-4.6v4.6h-2.4z"/><g clip-rule="evenodd" fill-rule="evenodd"><path d="m41.1 201.9c1.3 0 2.5-.8 2.5-2.3v-4c0-1.4-1.1-2.2-2.6-2.2h-2.1v8.5zm-5.8-11.5h6c3.2 0 5.9 1.7 5.9 5.1v4.1c0 3.6-2.8 5.3-5.9 5.3h-6.1v-14.5z"/><path d="m112.7 177.5h-83.7v-119.4h43.3v-38.6h40c36.1 0 66.7 15.5 66.7 53.9v46.8c0 41.1-31 57.3-66.3 57.3zm-40.4-38.5h39.5v-23.7h29.7v-33.1h-29.7v-24.1h-39.5z"/><path d="m168.7 285.9h1.9l2.5 7h-1.8l-.4-1.3h-2.5l-.4 1.3h-1.7zm1.7 4.3-.8-2.5-.8 2.5zm3.3-4.3h1.8v5.6h3.3v1.4h-5.1zm-13.5 4.6v-2.1c0-1.7 1.4-2.6 2.9-2.6 1.4 0 2.9.6 2.9 2.3v.3h-1.6v-.1c0-.7-.6-1-1.2-1s-1.2.3-1.2 1.1v2.2c0 .7.5 1.2 1.2 1.2.6 0 1.1-.3 1.1-1v-.2h-1.4v-1.3h3.1v1.6c0 1.6-1.5 2.3-2.8 2.3-1.6-.2-3-1-3-2.7zm-19.7-4.6h3.1c1.6 0 2.5.9 2.5 2.2 0 .9-.4 1.7-1.3 2.1l1.6 2.7h-1.9l-1.4-2.5h-.8v2.5h-1.8zm2.9 3.2c.6 0 1-.4 1-.9 0-.6-.4-.9-1-.9h-1.1v1.9h1.1zm9.9 1.3v-4.5h1.7v4.4c0 .8.4 1.3 1.2 1.3.7 0 1.2-.4 1.2-1.3v-4.4h1.7v4.4c0 1.7-1.3 2.7-2.9 2.7-1.7 0-2.9-.9-2.9-2.6zm-4.5-3.1h-2v-1.4h5.7v1.4h-2v5.6h-1.8v-5.6zm-15.2 3.1v-2c0-1.8 1.5-2.6 3-2.6 1.6 0 3 .8 3 2.6v1.9c0 1.8-1.5 2.6-3 2.6-1.6.1-3-.7-3-2.5zm4.2 0v-2.1c0-.7-.6-1.1-1.2-1.1s-1.2.3-1.2 1.1v2c0 .7.5 1.2 1.2 1.2.6 0 1.2-.3 1.2-1.1zm-10.5-4.5h3.2c1.5 0 2.4 1 2.4 2.2 0 1.1-.7 2.3-2.4 2.3h-1.5v2.4h-1.8v-6.9zm2.8 3.2c.6 0 1-.4 1-.9 0-.6-.4-.9-1-.9h-1.1v1.9h1.1z"/><path d="m61 263h6c3.2 0 5.9 1.7 5.9 5.1v4.1c0 3.6-2.8 5.3-5.9 5.3h-6zm5.8 11.5c1.3 0 2.5-.8 2.5-2.3v-4c0-1.4-1.1-2.2-2.6-2.2h-2.1v8.5zm-32.7-11.5h3.9l5.1 14.5h-3.7l-.9-2.7h-5.2l-.9 2.7h-3.4zm3.5 9-1.7-5.2-1.7 5.2zm115.9-9h6.3c3.3 0 5.2 1.9 5.2 4.6 0 1.8-.9 3.5-2.7 4.3l3.3 5.6h-3.9l-2.9-5.1h-1.6v5.1h-3.6v-14.5zm5.9 6.7c1.3 0 2.1-.7 2.1-1.9s-.8-1.9-2.1-1.9h-2.2v3.8zm-114.1-6.7h3.5l5.5 8.2v-8.2h3.3v14.4h-3.4l-5.6-8.5v8.5h-3.3zm37.8 9.5v-4.4c0-3.5 2.9-5.3 6.1-5.3 2.8 0 5.9 1.4 5.9 4.8v.7h-3.4v-.3c0-1.5-1.3-2.1-2.4-2.1-1.3 0-2.5.7-2.5 2.3v4.4c0 1.5 1.1 2.3 2.6 2.3 1.1 0 2.3-.6 2.3-2.1v-.3h3.4v.7c0 3.3-3 4.7-5.8 4.7-3.2-.2-6.2-1.8-6.2-5.4zm14.8-.2v-9.3h3.6v9.1c0 1.6.9 2.6 2.5 2.6 1.5 0 2.4-.9 2.4-2.6v-9.1h3.5v9.2c0 3.6-2.7 5.5-6.1 5.5-3.6 0-5.9-1.7-5.9-5.4zm15.3-9.3h3.6v11.5h6.9v3h-10.5zm14.8 2.9h-4.1v-2.9h11.8v2.9h-4.1v11.5h-3.6zm10.2 6.4v-9.3h3.6v9.1c0 1.6.9 2.6 2.5 2.6 1.5 0 2.4-.9 2.4-2.6v-9.1h3.5v9.2c0 3.6-2.7 5.5-6.1 5.5-3.6 0-5.9-1.7-5.9-5.4zm29.9-9.3h10.6v2.9h-7v2.8h5.9v2.9h-5.9v2.9h7v3h-10.7v-14.5z"/></g></g></svg>