<?xml version="1.0" encoding="utf-8"?>
<!-- Generator: Adobe Illustrator 24.1.0, SVG Export Plug-In . SVG Version: 6.00 Build 0)  -->
<svg version="1.1" id="Layer_1" xmlns="http://www.w3.org/2000/svg" xmlns:xlink="http://www.w3.org/1999/xlink" x="0px" y="0px"
	 viewBox="0 0 299 285" style="enable-background:new 0 0 299 285;" xml:space="preserve">
<g>
	<path d="M88,115.7L53.3,75.5v40.1H28.9V33h23.2l34.7,40.7V33h24.4v82.7H88z"/>
	<path d="M127.9,115.7V33h26.6v82.7H127.9z"/>
	<path d="M217.6,54.2v61.5H191V54.2h-27.2V33h80.8v21.2H217.6z"/>
</g>
<g>
	<path d="M28.8,124.3h3.7l15.8,20.9l1,1.4l0.2,0v-2v-20.2h3.9v29.9h-3.5l-15.9-21.1l-1.1-1.5l-0.2,0v1.8v20.8h-3.9V124.3z"/>
	<path d="M61.5,152.9c-1.2-1.2-1.9-3.2-1.9-6v-15.7h3.8v15.4c0,1.8,0.4,3.1,1.2,3.8c0.8,0.7,2,1.1,3.5,1.1c1.1,0,2.1-0.3,3.1-0.8
		c0.9-0.5,1.7-1.3,2.2-2.3c0.6-1,0.8-2.2,0.8-3.6v-13.6h3.8v23h-2.9l-0.4-3.1h-0.3c-1.7,2.4-4.3,3.6-7.7,3.6
		C64.5,154.7,62.7,154.1,61.5,152.9z M70.9,122.6h4.2l0,0.1l-4.7,5.6h-3.3L70.9,122.6z"/>
	<path d="M85,151.8c-1.6-1.9-2.4-5-2.4-9.1c0-4.1,0.8-7.1,2.5-9.1c1.6-1.9,4.2-2.9,7.7-2.9c3.1,0,5.4,0.8,6.9,2.3
		c1.5,1.5,2.2,3.8,2.2,6.8h-3.9c0-2.1-0.4-3.6-1.1-4.5c-0.7-0.9-2.1-1.4-4-1.4c-2.1,0-3.7,0.7-4.7,2.1c-1,1.4-1.5,3.6-1.5,6.7v0.2
		c0,3.1,0.5,5.3,1.4,6.6c1,1.3,2.5,2,4.7,2c1.9,0,3.3-0.5,4.1-1.5c0.8-1,1.2-2.4,1.2-4.4h3.7c0,2.6-0.7,4.8-2.2,6.5
		c-1.5,1.7-3.8,2.6-6.9,2.6C89.2,154.7,86.7,153.7,85,151.8z"/>
	<path d="M105.8,122.6h3.8v31.5h-3.8V122.6z"/>
	<path d="M117,151.8c-1.8-1.9-2.7-5-2.7-9.1c0-4.1,0.9-7.1,2.7-9.1c1.8-1.9,4.6-2.9,8.2-2.9c3.3,0,5.8,0.9,7.4,2.6
		c1.6,1.8,2.5,4.6,2.5,8.5v1.9h-16.9c0.1,2.6,0.8,4.6,1.9,5.9c1.1,1.3,2.8,1.9,5.1,1.9c1.8,0,3.3-0.4,4.5-1.3s1.7-2.1,1.7-3.9h3.8
		c0,2.7-0.9,4.7-2.8,6.2c-1.8,1.4-4.2,2.2-7.1,2.2C121.5,154.7,118.8,153.7,117,151.8z M131.1,140.6c0-4.5-2-6.7-5.9-6.7
		c-2.2,0-3.8,0.5-4.9,1.6c-1.1,1-1.8,2.7-2,5.1H131.1z"/>
	<path d="M141,151.8c-1.8-2-2.7-5-2.7-9.1c0-4.1,0.9-7.1,2.7-9.1c1.8-2,4.4-2.9,7.9-2.9c3.5,0,6.2,1,7.9,2.9c1.8,2,2.7,5,2.7,9.1
		c0,4.1-0.9,7.1-2.7,9.1c-1.8,2-4.4,2.9-7.9,2.9C145.4,154.7,142.8,153.7,141,151.8z M154,149.5c1-1.4,1.6-3.6,1.6-6.6v-0.3
		c0-3.1-0.5-5.3-1.6-6.6c-1-1.4-2.7-2-5.1-2c-2.3,0-4,0.7-5.1,2c-1,1.4-1.6,3.6-1.6,6.6v0.3c0,3.1,0.5,5.3,1.6,6.6
		c1,1.4,2.7,2,5.1,2C151.3,151.5,153,150.8,154,149.5z"/>
	<path d="M177.1,151.8c-1.6-1.9-2.4-5-2.4-9.1c0-4,0.8-7,2.3-9c1.6-2,3.7-3,6.4-3c1.6,0,3,0.2,4.1,0.7c1.1,0.5,2.1,1.3,2.8,2.4h0.3
		v-11.2h3.8v31.5h-2.9l-0.5-3.1h-0.3c-0.8,1.2-1.8,2.1-3,2.7c-1.2,0.6-2.6,0.9-4.1,0.9C180.9,154.7,178.7,153.7,177.1,151.8z
		 M189.3,149.3c0.9-1.5,1.4-3.6,1.4-6.5v-0.2c0-2.9-0.5-5.1-1.4-6.6c-1-1.5-2.5-2.2-4.5-2.2c-1.5,0-2.6,0.3-3.5,0.9
		c-0.9,0.6-1.5,1.5-1.9,2.8c-0.4,1.3-0.6,3-0.6,5.2v0.2c0,2.2,0.2,3.9,0.6,5.1c0.4,1.3,1,2.2,1.9,2.7c0.9,0.6,2.1,0.8,3.5,0.8
		C186.9,151.5,188.4,150.8,189.3,149.3z"/>
	<path d="M201.9,151.8c-1.8-1.9-2.7-5-2.7-9.1c0-4.1,0.9-7.1,2.7-9.1c1.8-1.9,4.6-2.9,8.2-2.9c3.3,0,5.8,0.9,7.4,2.6
		c1.6,1.8,2.5,4.6,2.5,8.5v1.9h-16.9c0.1,2.6,0.8,4.6,1.9,5.9c1.1,1.3,2.8,1.9,5.1,1.9c1.8,0,3.3-0.4,4.5-1.3s1.7-2.1,1.7-3.9h3.8
		c0,2.7-0.9,4.7-2.8,6.2c-1.8,1.4-4.2,2.2-7.1,2.2C206.4,154.7,203.7,153.7,201.9,151.8z M216,140.6c0-4.5-2-6.7-5.9-6.7
		c-2.2,0-3.8,0.5-4.9,1.6c-1.1,1-1.8,2.7-2,5.1H216z"/>
	<path d="M29.3,169.6h4.1v29.9h-4.1V169.6z"/>
	<path d="M40.4,176.6h2.9l0.4,3.1H44c1.7-2.4,4.3-3.6,7.7-3.6c2.3,0,4.1,0.6,5.3,1.9c1.2,1.2,1.9,3.2,1.9,6v15.7h-3.8v-15.4
		c0-1.8-0.4-3.1-1.2-3.8c-0.8-0.7-2-1.1-3.5-1.1c-1.1,0-2.1,0.3-3.1,0.8c-0.9,0.5-1.7,1.3-2.2,2.3c-0.6,1-0.8,2.2-0.8,3.6v13.6h-3.8
		V176.6z"/>
	<path d="M62.3,176.6h4.1l4.1,11.5c0.6,1.6,1.3,4,2.3,7.2h0.2c0.8-3,1.6-5.4,2.2-7.2l4-11.5h3.8l-8.4,23h-3.8L62.3,176.6z"/>
	<path d="M87.9,197.1c-1.8-1.9-2.7-5-2.7-9.1c0-4.1,0.9-7.1,2.7-9.1c1.8-1.9,4.6-2.9,8.2-2.9c3.3,0,5.8,0.9,7.4,2.6
		c1.6,1.8,2.5,4.6,2.5,8.5v1.9H89.2c0.1,2.6,0.8,4.6,1.9,5.9c1.1,1.3,2.8,1.9,5.1,1.9c1.8,0,3.3-0.4,4.5-1.3s1.7-2.1,1.7-3.9h3.8
		c0,2.7-0.9,4.7-2.8,6.2c-1.8,1.4-4.2,2.2-7.1,2.2C92.5,200.1,89.7,199.1,87.9,197.1z M102.1,185.9c0-4.5-2-6.7-5.9-6.7
		c-2.2,0-3.8,0.5-4.9,1.6c-1.1,1-1.8,2.7-2,5.1H102.1z"/>
	<path d="M113.3,199.1c-1.4-0.6-2.5-1.4-3.1-2.5c-0.7-1-1-2.1-1-3.3c0-0.3,0-0.6,0-0.7c0-0.1,0-0.2,0-0.2h3.8v0.4
		c0,1.4,0.5,2.4,1.6,3.1c1.1,0.7,2.5,1,4.2,1c1.5,0,2.7-0.3,3.7-0.9c1-0.6,1.5-1.4,1.5-2.5c0-0.8-0.3-1.5-0.8-2.1
		c-0.6-0.5-1.2-1-2.1-1.3c-0.8-0.3-1.9-0.6-3.3-1c-1.7-0.4-3.1-0.9-4.1-1.3c-1.1-0.4-2-1.1-2.7-1.9c-0.7-0.9-1.1-2-1.1-3.3
		c0-2,0.8-3.6,2.5-4.8c1.6-1.2,3.9-1.8,6.7-1.8c1.7,0,3.3,0.3,4.5,0.9c1.3,0.6,2.2,1.3,2.9,2.3c0.7,0.9,1,2,1,3.2l0,0.8h-3.8v-0.4
		c0-1-0.4-1.9-1.2-2.5c-0.8-0.7-2.1-1-3.9-1c-1.7,0-3,0.3-3.7,0.9c-0.7,0.6-1,1.3-1,2.2c0,0.7,0.2,1.2,0.7,1.7
		c0.5,0.4,1.1,0.8,1.8,1c0.7,0.3,1.7,0.6,3.1,0.9c1.8,0.5,3.3,0.9,4.4,1.4c1.1,0.5,2.1,1.1,2.9,2.1c0.8,0.9,1.2,2.1,1.2,3.6
		c0,2.4-0.9,4.1-2.6,5.3c-1.7,1.2-4,1.8-6.8,1.8C116.4,200.1,114.7,199.8,113.3,199.1z"/>
	<path d="M134.3,198.6c-0.7-0.9-1.1-2.1-1.1-3.4v-15.4h-2.8v-3.2h2.8l0.8-6.4h3v6.4h3.9v3.2H137v15.1c0,1.4,0.6,2.1,1.9,2.1h2v2.5
		c-0.4,0.2-0.9,0.3-1.5,0.4c-0.6,0.1-1.2,0.2-1.7,0.2C136.1,200,135,199.6,134.3,198.6z"/>
	<path d="M144.6,168h3.8v4.1h-3.8V168z M144.6,176.6h3.8v23h-3.8V176.6z"/>
	<path d="M154,206.2c-1.2-0.9-1.9-2.3-1.9-4.3c0-2.4,1.2-4,3.7-4.9c-0.7-0.4-1.3-0.9-1.7-1.5c-0.5-0.6-0.7-1.3-0.7-2.1
		c0-1.1,0.4-2,1.2-2.6c0.8-0.6,1.7-1,2.6-1.2c-1-0.7-1.7-1.6-2.3-2.6c-0.6-1-0.8-2.1-0.8-3.4c0-2.4,0.8-4.3,2.5-5.7
		c1.7-1.4,3.9-2,6.8-2c1.6,0,3.1,0.3,4.4,0.8c1.9-0.9,3-2.2,3.3-4h3.7c0,1.4-0.4,2.5-1.2,3.5c-0.8,1-1.9,1.6-3.3,2
		c1.6,1.5,2.4,3.3,2.4,5.4c0,2.4-0.8,4.3-2.5,5.7c-1.7,1.4-3.9,2-6.8,2h-3.7c-0.8,0-1.4,0.2-1.8,0.5c-0.4,0.3-0.6,0.8-0.6,1.4
		c0,0.6,0.2,1,0.6,1.4c0.4,0.3,1,0.5,1.8,0.5h9.2c1.8,0,3.2,0.5,4.3,1.6s1.6,2.4,1.6,3.9c0,1.1-0.2,2.2-0.7,3.2
		c-0.5,1-1.3,1.8-2.4,2.5c-1.1,0.6-2.5,1-4.1,1h-9.2C156.7,207.5,155.3,207.1,154,206.2z M167.8,204.4c1,0,1.8-0.3,2.4-0.8
		c0.6-0.5,1-1.2,1-2.1s-0.3-1.6-0.8-2.1c-0.5-0.5-1.2-0.8-2-0.8h-9.6c-0.8,0-1.5,0.3-2,0.8c-0.5,0.5-0.7,1.2-0.7,2.1
		s0.2,1.6,0.7,2.1c0.5,0.5,1.2,0.8,2,0.8H167.8z M167.7,187.3c0.9-0.8,1.4-2,1.4-3.5c0-1.5-0.5-2.7-1.4-3.5
		c-0.9-0.8-2.3-1.2-4.1-1.2c-1.8,0-3.2,0.4-4.1,1.2c-0.9,0.8-1.4,2-1.4,3.5c0,1.5,0.5,2.7,1.4,3.5c0.9,0.8,2.3,1.2,4.1,1.2
		C165.4,188.6,166.8,188.1,167.7,187.3z"/>
	<path d="M179.6,198.7c-1.5-0.9-2.3-2.6-2.3-5.1c0-2.9,1.3-5,3.9-6c2.6-1.1,6.4-1.6,11.3-1.6v-2.5c0-1.3-0.4-2.4-1.1-3.1
		c-0.8-0.7-2.1-1.1-4.1-1.1c-1.9,0-3.2,0.3-4,1c-0.8,0.7-1.2,1.6-1.2,2.6v0.5h-3.7c0-0.2,0-0.5,0-1c0-2,0.8-3.6,2.5-4.7
		c1.7-1.1,3.9-1.7,6.8-1.7c2.9,0,5,0.6,6.5,1.8c1.5,1.2,2.2,2.9,2.2,5.1v12.4c0,0.5,0.1,0.9,0.4,1.2c0.3,0.2,0.7,0.4,1.1,0.4h1.7
		v2.5c-0.8,0.3-1.7,0.5-3,0.5c-1,0-1.8-0.3-2.5-0.9c-0.7-0.6-1.1-1.4-1.4-2.4h-0.3c-0.8,1.1-1.9,1.9-3.2,2.5s-2.8,0.9-4.5,0.9
		C182.9,200.1,181.1,199.6,179.6,198.7z M189.1,196.2c1-0.5,1.8-1.2,2.5-2.1c0.6-0.9,1-2,1-3.3v-1.7c-3.8,0-6.6,0.3-8.4,0.9
		c-1.9,0.6-2.8,1.7-2.8,3.4c0,1.3,0.4,2.1,1.2,2.7c0.8,0.5,1.9,0.8,3.4,0.8C187,196.9,188,196.7,189.1,196.2z"/>
	<path d="M215.7,195.4c0.8-1,1.2-2.4,1.2-4.4h3.7c0,2.6-0.7,4.7-2.1,6.3c-1.4,1.7-3.6,2.6-6.5,2.7l-0.2,1.1c2.7,0.2,4,1.1,4,2.8
		c0,1.3-0.5,2.2-1.6,2.7c-1,0.5-2.2,0.8-3.6,0.8c-1.5,0-2.9-0.1-4.1-0.3V205h4.4c0.6,0,1-0.1,1.3-0.2c0.3-0.2,0.5-0.4,0.5-0.8
		c0-0.3-0.1-0.6-0.4-0.8c-0.2-0.2-0.7-0.3-1.3-0.3h-2.2l0.6-3c-2.7-0.4-4.7-1.5-6-3.5c-1.3-1.9-1.9-4.7-1.9-8.4
		c0-4.1,0.8-7.1,2.5-9.1c1.6-1.9,4.2-2.9,7.7-2.9c3.1,0,5.4,0.8,6.9,2.3c1.5,1.5,2.2,3.8,2.2,6.8h-3.9c0-2.1-0.4-3.6-1.1-4.5
		c-0.7-0.9-2.1-1.4-4-1.4c-2.1,0-3.7,0.7-4.7,2.1c-1,1.4-1.5,3.6-1.5,6.7v0.2c0,3.1,0.5,5.3,1.4,6.6c1,1.3,2.5,2,4.7,2
		C213.5,196.9,214.9,196.4,215.7,195.4z"/>
	<path d="M225.6,198.7c-1.5-0.9-2.3-2.6-2.3-5.1c0-2.9,1.3-5,3.9-6c2.6-1.1,6.4-1.6,11.3-1.6v-2.5c0-1.3-0.4-2.4-1.1-3.1
		c-0.8-0.7-2.1-1.1-4.1-1.1c-1.9,0-3.2,0.3-4,1c-0.8,0.7-1.2,1.6-1.2,2.6v0.5h-3.7c0-0.2,0-0.5,0-1c0-2,0.8-3.6,2.5-4.7
		c1.7-1.1,3.9-1.7,6.8-1.7c2.9,0,5,0.6,6.5,1.8c1.5,1.2,2.2,2.9,2.2,5.1v12.4c0,0.5,0.1,0.9,0.4,1.2c0.3,0.2,0.7,0.4,1.1,0.4h1.7
		v2.5c-0.8,0.3-1.7,0.5-3,0.5c-1,0-1.8-0.3-2.5-0.9c-0.7-0.6-1.1-1.4-1.4-2.4h-0.3c-0.8,1.1-1.9,1.9-3.2,2.5s-2.8,0.9-4.5,0.9
		C228.9,200.1,227.2,199.6,225.6,198.7z M227.2,169.3c0.6-0.9,1.5-1.3,2.8-1.3c0.6,0,1.1,0.1,1.6,0.2c0.5,0.1,1.1,0.3,1.9,0.5
		c1.3,0.4,2.3,0.7,3.1,0.7c0.7,0,1.1-0.5,1.2-1.4h2.8c0,1.3-0.3,2.4-0.9,3.3c-0.6,0.9-1.5,1.3-2.8,1.3c-0.6,0-1.1-0.1-1.6-0.2
		c-0.5-0.1-1.1-0.3-1.9-0.5c-1.3-0.4-2.3-0.7-3.1-0.7c-0.7,0-1.1,0.5-1.2,1.4h-2.8C226.2,171.2,226.5,170.1,227.2,169.3z
		 M235.1,196.2c1-0.5,1.8-1.2,2.5-2.1c0.6-0.9,1-2,1-3.3v-1.7c-3.8,0-6.6,0.3-8.4,0.9c-1.9,0.6-2.8,1.7-2.8,3.4
		c0,1.3,0.4,2.1,1.2,2.7c0.8,0.5,1.9,0.8,3.4,0.8C233,196.9,234.1,196.7,235.1,196.2z"/>
	<path d="M250.2,197.1c-1.8-2-2.7-5-2.7-9.1c0-4.1,0.9-7.1,2.7-9.1c1.8-2,4.4-2.9,7.9-2.9c3.5,0,6.2,1,7.9,2.9c1.8,2,2.7,5,2.7,9.1
		c0,4.1-0.9,7.1-2.7,9.1c-1.8,2-4.4,2.9-7.9,2.9C254.6,200.1,252,199.1,250.2,197.1z M263.2,194.9c1-1.4,1.6-3.6,1.6-6.6v-0.3
		c0-3.1-0.5-5.3-1.6-6.6c-1-1.4-2.7-2-5.1-2c-2.3,0-4,0.7-5.1,2c-1,1.4-1.6,3.6-1.6,6.6v0.3c0,3.1,0.5,5.3,1.6,6.6
		c1,1.4,2.7,2,5.1,2C260.5,196.9,262.1,196.2,263.2,194.9z"/>
	<path d="M36.6,218.6H26.3V215H51v3.6H40.7v26.3h-4.1V218.6z"/>
	<path d="M53.3,213.4h3.8v4.1h-3.8V213.4z M53.3,222h3.8v23h-3.8V222z"/>
	<path d="M63,222h2.9l0.5,3.1h0.3c0.8-1.2,1.8-2.1,3-2.7c1.2-0.6,2.6-0.9,4.1-0.9c2.9,0,5.1,1,6.7,2.9c1.6,1.9,2.4,5,2.4,9.1
		c0,4-0.8,7-2.3,9c-1.6,2-3.7,3-6.4,3c-1.6,0-3-0.2-4.1-0.7c-1.1-0.5-2.1-1.3-2.8-2.4h-0.3v10.2H63V222z M76.3,241.4
		c0.9-0.6,1.5-1.5,1.9-2.7c0.4-1.3,0.6-3,0.6-5.1v-0.2c0-2.2-0.2-3.9-0.6-5.2c-0.4-1.3-1.1-2.2-1.9-2.8c-0.9-0.6-2.1-0.9-3.5-0.9
		c-2,0-3.5,0.7-4.5,2.2s-1.4,3.7-1.4,6.6v0.2c0,2.9,0.5,5,1.4,6.5c0.9,1.5,2.5,2.2,4.5,2.2C74.2,242.2,75.4,242,76.3,241.4z"/>
	<path d="M88.5,242.5c-1.8-2-2.7-5-2.7-9.1c0-4.1,0.9-7.1,2.7-9.1c1.8-2,4.4-2.9,7.9-2.9c3.5,0,6.2,1,7.9,2.9c1.8,2,2.7,5,2.7,9.1
		c0,4.1-0.9,7.1-2.7,9.1c-1.8,2-4.4,2.9-7.9,2.9C92.9,245.4,90.3,244.5,88.5,242.5z M101.5,240.2c1-1.4,1.6-3.6,1.6-6.6v-0.3
		c0-3.1-0.5-5.3-1.6-6.6c-1-1.4-2.7-2-5.1-2c-2.3,0-4,0.7-5.1,2c-1,1.4-1.6,3.6-1.6,6.6v0.3c0,3.1,0.5,5.3,1.6,6.6
		c1,1.4,2.7,2,5.1,2C98.8,242.2,100.4,241.6,101.5,240.2z"/>
	<path d="M111.2,251.6c-1.2-0.9-1.9-2.3-1.9-4.3c0-2.4,1.2-4,3.7-4.9c-0.7-0.4-1.3-0.9-1.7-1.5c-0.5-0.6-0.7-1.3-0.7-2.1
		c0-1.1,0.4-2,1.2-2.6c0.8-0.6,1.7-1,2.6-1.2c-1-0.7-1.7-1.6-2.3-2.6c-0.6-1-0.8-2.1-0.8-3.4c0-2.4,0.8-4.3,2.5-5.7
		c1.7-1.4,3.9-2,6.8-2c1.6,0,3.1,0.3,4.4,0.8c1.9-0.9,3-2.2,3.3-4h3.7c0,1.4-0.4,2.5-1.2,3.5c-0.8,1-1.9,1.6-3.3,2
		c1.6,1.5,2.4,3.3,2.4,5.4c0,2.4-0.8,4.3-2.5,5.7c-1.7,1.4-3.9,2-6.8,2H117c-0.8,0-1.4,0.2-1.8,0.5c-0.4,0.3-0.6,0.8-0.6,1.4
		c0,0.6,0.2,1,0.6,1.4c0.4,0.3,1,0.5,1.8,0.5h9.2c1.8,0,3.2,0.5,4.3,1.6s1.6,2.4,1.6,3.9c0,1.1-0.2,2.2-0.7,3.2
		c-0.5,1-1.3,1.8-2.4,2.5c-1.1,0.6-2.5,1-4.1,1h-9.2C113.9,252.9,112.4,252.4,111.2,251.6z M124.9,249.8c1,0,1.8-0.3,2.4-0.8
		c0.6-0.5,1-1.2,1-2.1s-0.3-1.6-0.8-2.1c-0.5-0.5-1.2-0.8-2-0.8h-9.6c-0.8,0-1.5,0.3-2,0.8c-0.5,0.5-0.7,1.2-0.7,2.1
		s0.2,1.6,0.7,2.1c0.5,0.5,1.2,0.8,2,0.8H124.9z M124.8,232.7c0.9-0.8,1.4-2,1.4-3.5c0-1.5-0.5-2.7-1.4-3.5
		c-0.9-0.8-2.3-1.2-4.1-1.2c-1.8,0-3.2,0.4-4.1,1.2c-0.9,0.8-1.4,2-1.4,3.5c0,1.5,0.5,2.7,1.4,3.5c0.9,0.8,2.3,1.2,4.1,1.2
		C122.5,233.9,123.9,233.5,124.8,232.7z"/>
	<path d="M135.7,222h2.9l0.4,3.4h0.3c0.4-1.1,1.1-2.1,2-2.8c0.9-0.8,2-1.1,3.4-1.1c0.8,0,1.5,0.1,2.1,0.3v3.7h-1.6
		c-1.6,0-3,0.5-4,1.4c-1.1,0.9-1.6,2.4-1.6,4.4v13.6h-3.8V222z"/>
	<path d="M151.2,244c-1.5-0.9-2.3-2.6-2.3-5.1c0-2.9,1.3-5,3.9-6c2.6-1.1,6.4-1.6,11.3-1.6v-2.5c0-1.3-0.4-2.4-1.1-3.1
		c-0.8-0.7-2.1-1.1-4.1-1.1c-1.9,0-3.2,0.3-4,1c-0.8,0.7-1.2,1.6-1.2,2.6v0.5h-3.7c0-0.2,0-0.5,0-1c0-2,0.8-3.6,2.5-4.7
		c1.7-1.1,3.9-1.7,6.8-1.7c2.9,0,5,0.6,6.5,1.8c1.5,1.2,2.2,2.9,2.2,5.1v12.4c0,0.5,0.1,0.9,0.4,1.2c0.3,0.2,0.7,0.4,1.1,0.4h1.7
		v2.5c-0.8,0.3-1.7,0.5-3,0.5c-1,0-1.8-0.3-2.5-0.9c-0.7-0.6-1.1-1.4-1.4-2.4h-0.3c-0.8,1.1-1.9,1.9-3.2,2.5s-2.8,0.9-4.5,0.9
		C154.5,245.4,152.8,245,151.2,244z M160.7,241.5c1-0.5,1.8-1.2,2.5-2.1c0.6-0.9,1-2,1-3.3v-1.7c-3.8,0-6.6,0.3-8.4,0.9
		c-1.9,0.6-2.8,1.7-2.8,3.4c0,1.3,0.4,2.1,1.2,2.7c0.8,0.5,1.9,0.8,3.4,0.8C158.7,242.2,159.7,242,160.7,241.5z M161.1,213.4h4.2
		l0,0.1l-4.7,5.6h-3.3L161.1,213.4z"/>
	<path d="M175.4,225.1H172V222h3.4v-3.7c0-1.5,0.4-2.8,1.1-3.8c0.8-1,2-1.5,3.8-1.5c0.6,0,1.2,0.1,1.8,0.2c0.6,0.1,1.1,0.2,1.5,0.4
		v2.7h-2.3c-1.4,0-2.1,0.7-2.1,2.1v3.7h4.4v3.2h-4.4v19.8h-3.8V225.1z M186.7,213.4h3.8v4.3h-3.8V213.4z M186.7,222h3.8v23h-3.8V222
		z"/>
	<path d="M197.4,242.5c-1.6-1.9-2.4-5-2.4-9.1c0-4.1,0.8-7.1,2.5-9.1c1.6-1.9,4.2-2.9,7.7-2.9c3.1,0,5.4,0.8,6.9,2.3
		c1.5,1.5,2.2,3.8,2.2,6.8h-3.9c0-2.1-0.4-3.6-1.1-4.5c-0.7-0.9-2.1-1.4-4-1.4c-2.1,0-3.7,0.7-4.7,2.1c-1,1.4-1.5,3.6-1.5,6.7v0.2
		c0,3.1,0.5,5.3,1.4,6.6c1,1.3,2.5,2,4.7,2c1.9,0,3.3-0.5,4.1-1.5c0.8-1,1.2-2.4,1.2-4.4h3.7c0,2.6-0.7,4.8-2.2,6.5
		c-1.5,1.7-3.8,2.6-6.9,2.6C201.6,245.4,199,244.5,197.4,242.5z"/>
	<path d="M219.1,244c-1.5-0.9-2.3-2.6-2.3-5.1c0-2.9,1.3-5,3.9-6c2.6-1.1,6.4-1.6,11.3-1.6v-2.5c0-1.3-0.4-2.4-1.1-3.1
		c-0.8-0.7-2.1-1.1-4.1-1.1c-1.9,0-3.2,0.3-4,1c-0.8,0.7-1.2,1.6-1.2,2.6v0.5h-3.7c0-0.2,0-0.5,0-1c0-2,0.8-3.6,2.5-4.7
		c1.7-1.1,3.9-1.7,6.8-1.7c2.9,0,5,0.6,6.5,1.8c1.5,1.2,2.2,2.9,2.2,5.1v12.4c0,0.5,0.1,0.9,0.4,1.2c0.3,0.2,0.7,0.4,1.1,0.4h1.7
		v2.5c-0.8,0.3-1.7,0.5-3,0.5c-1,0-1.8-0.3-2.5-0.9c-0.7-0.6-1.1-1.4-1.4-2.4h-0.3c-0.8,1.1-1.9,1.9-3.2,2.5s-2.8,0.9-4.5,0.9
		C222.4,245.4,220.7,245,219.1,244z M228.6,241.5c1-0.5,1.8-1.2,2.5-2.1c0.6-0.9,1-2,1-3.3v-1.7c-3.8,0-6.6,0.3-8.4,0.9
		c-1.9,0.6-2.8,1.7-2.8,3.4c0,1.3,0.4,2.1,1.2,2.7c0.8,0.5,1.9,0.8,3.4,0.8C226.5,242.2,227.6,242,228.6,241.5z"/>
</g>
</svg>
